<?xml version="1.0" encoding="utf-8"?>
<!-- Generator: Adobe Illustrator 24.1.1, SVG Export Plug-In . SVG Version: 6.00 Build 0)  -->
<svg version="1.1" id="Layer_1" xmlns="http://www.w3.org/2000/svg" xmlns:xlink="http://www.w3.org/1999/xlink" x="0px" y="0px"
	 viewBox="0 0 50 72" style="enable-background:new 0 0 50 72;" xml:space="preserve">
<style type="text/css">
	.st0{fill:#B1B4B6;}
	.st1{fill:#6B2B15;}
	.st2{fill:#333232;}
	.st3{fill:#414141;}
	.st4{fill:#4E4E4E;}
	.st5{fill:#F5B486;}
	.st6{fill:#3D7EC1;}
	.st7{fill:#649CD4;}
	.st8{fill:#FBD1B4;}
	.st9{fill:#6B3221;}
	.st10{fill:#606060;}
	.st11{fill:#939394;}
	.st12{fill:#D9D9D8;}
	.st13{fill:#8D919C;}
	.st14{fill:#79311D;}
	.st15{fill:#EB9954;}
	.st16{fill:#D26E45;}
	.st17{fill:#3F617B;}
	.st18{fill:#FFFFFF;}
	.st19{fill:#B14933;}
	.st20{fill:#063347;}
	.st21{fill:#FCCD45;}
	.st22{fill:#A54C24;}
	.st23{fill:#CD7528;}
	.st24{fill:#FEDDC7;}
	.st25{fill:#EFF2EF;}
</style>
<g>
	<polygon id="XMLID_124_" class="st0" points="2.03,54.42 25.79,68.13 40.56,59.5 16.8,45.79 	"/>
	<polygon class="st0" points="39.57,60.08 42.42,59.87 41.41,60.62 37.06,60.73 	"/>
	<polygon class="st0" points="27.44,66.82 31.18,66.76 29.32,67.45 25.82,67.62 	"/>
	<g id="XMLID_122_">
		<polygon id="XMLID_123_" class="st0" points="27.88,68.2 28.67,68.67 30.7,68.79 44.68,59.43 42.88,59.43 		"/>
	</g>
	<g id="XMLID_120_">
		<polygon id="XMLID_121_" class="st0" points="3.85,54.08 4.65,54.55 6.68,54.67 20.65,45.31 18.85,45.31 		"/>
	</g>
	<g>
		<g>
			<path class="st1" d="M34.25,44.25c0,0-0.57,0.6-0.89,0.87c-0.32,0.27-1.23,0.64-1.47,0.71c-0.24,0.07-1.29,0.58-1.39,0.83
				c-0.1,0.26-0.14,1.07,0,1.48c0.14,0.42,0.92,0.38,1.15,0.32c0.23-0.06,1.26-0.66,1.33-0.68c0.07-0.02,0.87-0.63,1.46-0.67
				c0.59-0.05,1.6-0.07,2.02-0.41c0.42-0.34,0.22-1.75,0.22-1.75l-0.05-1.01L34.25,44.25z"/>
			<path class="st2" d="M35.37,34.59l-0.27,1.5c0,0-0.39,4.36-0.58,5.53c-0.19,1.17-0.49,2.64-0.49,2.9c0,0.26,0.7,0.77,1.46,0.7
				c0.77-0.07,0.99-0.45,1.29-0.87c0.3-0.42,0.97-3.59,1.32-4.44c0.35-0.85,0.87-4.33,0.77-4.99
				C38.76,34.26,35.37,34.59,35.37,34.59z"/>
			<path class="st1" d="M37.96,45.16c0,0-0.15,1.32-0.46,1.54c-0.31,0.22-2.19,2.08-2.39,2.25c-0.2,0.17-1.09,0.63-0.68,1.14
				c0.41,0.51,1.07,0.56,1.32,0.6c0.26,0.05,1.45,0.05,1.5,0.07c0.05,0.02,1.22-0.92,1.43-1.29c0.21-0.37,0.65-1.08,0.96-1.17
				s0.78-0.39,0.78-0.7s-0.05-1.77-0.05-1.84C40.36,45.69,37.96,45.16,37.96,45.16z"/>
			<path class="st3" d="M34.63,24.94c0,0-0.42,1.99-0.23,4.8c0.19,2.81,0.56,5.6,0.7,6.35c0.14,0.75,2.23,0.96,3.08,0.24
				c0.86-0.72,1.74-6.05,1.74-6.05s0.58-4.54,0-5.91C39.34,22.99,35.45,23.18,34.63,24.94z"/>
			<path class="st4" d="M36.63,24.48c0,0,0.28,1.92,1.28,3.01c1,1.09,1.21,1.39,1.21,1.39s-0.53,5.92-0.83,7.1
				c-0.3,1.18,0.47,2.74,1.9,2.74s2.55-1.79,2.93-2.81c0.38-1.02,0.8-2.97,1.66-4.66c0.86-1.69,1.48-4.41,1.28-5.82
				c-0.21-1.41-0.94-2.54-1.53-3.14C43.93,21.69,36.63,24.48,36.63,24.48z"/>
			<path class="st4" d="M38.22,36.67c0,0,0.01,3.36,0,4.19c-0.01,0.83-0.45,4.75-0.45,4.75s0.4,0.77,1.12,0.9
				c0.72,0.14,1.62-0.51,1.62-0.51s1.32-3.94,1.62-4.75c0.3-0.81,0.65-4.24,0.63-4.59C42.73,36.32,39.04,35.87,38.22,36.67z"/>
			<path class="st5" d="M30.78,12.99c0,0-0.63,0.64-1.06,1.83c-0.43,1.18-1.11,2.23-1.48,2.57c-0.37,0.35-0.75,0.87-0.75,0.87
				s-1.03,0.96,0.49,1.77c1.51,0.82,1.37,1.25,2.09,0.24c0.73-1.01,1.32-2.3,1.54-2.52c0.23-0.23,1.9-2.8,2-3.18
				c0.1-0.38-0.05-1.65-0.61-1.84C32.45,12.54,30.78,12.99,30.78,12.99z"/>
			<path class="st6" d="M35.01,9.9c0,0-2.09,0.09-3.11,1.1c-1.03,1.01-1.57,2.37-1.81,2.78c-0.13,0.22,0.71,0.42,1.48,0.92
				c0.72,0.47,1.37,1.27,1.69,1.15C33.91,15.6,35.01,9.9,35.01,9.9z"/>
			<path class="st7" d="M36.17,9.61c0,0-2.46,0.68-3.04,2.51c-0.58,1.83-0.21,5.97-0.07,6.46c0.14,0.49,1.12,2.3,1.43,3.78
				s0.08,2.41,0.15,2.57c0.07,0.16,0.97,1.44,3.96,1.55c2.99,0.12,3.9-0.46,5.24-1.48c1.34-1.02,0.53-3.25,0.53-3.25
				s-0.79-1.04-0.83-2.57c-0.05-1.53,0.01-4.81-0.24-5.39c-0.25-0.58-3.07-2.91-4.72-3.44C36.93,9.82,36.17,9.61,36.17,9.61z"/>
			<path class="st5" d="M34.63,11.88c0,0,0.93,1.3,0.9,2.23c-0.02,0.93,0.67,1.23,1.81,0.81c1.14-0.42,1.62-0.53,1.97-1.43
				c0.35-0.89-0.74-2.14-0.74-3.14c0-1-0.35-1.74-0.67-1.58C37.58,8.94,34.63,11.88,34.63,11.88z"/>
			<path class="st8" d="M39.72,18.24c0,0-0.47,1.91-0.71,2.43c-0.24,0.52-1.51,3.28-1.57,3.82c-0.06,0.54,2.09,2.11,2.1,2.1
				c0.01-0.02,0.8-0.88,1.2-1.61c0.4-0.73,1.55-2.71,1.72-3.43c0.17-0.71,0.64-2.3,0.64-2.3L39.72,18.24z"/>
			<path class="st8" d="M33.89,5.18c0.69-0.3,1.47-0.38,2.21-0.42c0.62-0.03,1.56-0.17,2.09,0.23c0.16,0.12,0.22,0.37,0.28,0.55
				c0.26,0.77,0.37,1.58,0.42,2.39c0.03,0.41,0.04,0.82,0.05,1.22c0,0.31-0.1,0.5-0.21,0.79c-0.35,0.98-0.98,2.3-2.04,2.68
				c-0.97,0.35-1.83,0.63-2.67,0.37c-0.83-0.26-1.18-1.37-1.51-2.83c-0.32-1.46-0.53-1-0.44-2.34S32.2,5.93,33.89,5.18z"/>
			<path class="st9" d="M38.53,4.28c0,0-0.78-0.68-2.31-0.82c-1.53-0.14-2.24,0.35-2.97,1.18c-0.73,0.83-1.26,1.69-1.26,2.26
				s0.09,0.93,0.09,0.93s0.54-0.35,1.09-0.09c0.54,0.26,1.38,0.36,1.88,0.2c0.5-0.16,1.75,0.59,1.75,0.59s0.45,0.6,0.54,1.16
				c0.09,0.56,0.46,1.82,1.39,0.27c0.93-1.55,1.07-3.14,0.84-3.82C39.34,5.46,38.85,4.67,38.53,4.28z"/>
		</g>
		<path class="st9" d="M37.16,9.12c0,0,0.84,2.33,0.84,2.81c0,0.49-0.01,2,0.19,2.3c0.19,0.3,3.23-1.48,4.17-1.35
			c0.12,0.02,0.83,0.78,0.83,0.78s-0.25-0.88-0.95-1.96c-0.7-1.08-1.34-1.66-1.85-2.94c-0.51-1.28-0.97-2.5-0.97-2.5L37.16,9.12z"/>
		<path class="st6" d="M40.6,13.62c0,0-1.42,1.5-1.42,2.74s-0.16,2.79-0.16,2.99c0,0.21,1.85-0.16,2.5-0.14
			c0.65,0.02,1.67,0.28,1.58,0.65c-0.09,0.37,0.84-1.44,0.68-3.34C43.62,14.62,44.12,12.32,40.6,13.62z"/>
	</g>
	<g>
		<g id="XMLID_248_">
			<g id="XMLID_253_">
				<polygon id="XMLID_254_" class="st10" points="5.55,54.26 6.35,54.73 6.35,54.02 5.55,53.55 				"/>
			</g>
			<g id="XMLID_251_">
				<polygon id="XMLID_252_" class="st11" points="6.35,54.73 21.35,45.96 21.35,45.25 6.35,54.02 				"/>
			</g>
			<g id="XMLID_249_">
				<polygon id="XMLID_250_" class="st12" points="5.55,53.55 6.35,54.02 21.35,45.25 20.55,44.78 				"/>
			</g>
		</g>
		<polygon id="XMLID_240_" class="st11" points="6.86,53.7 7.54,53.32 7.54,27.67 6.86,28.05 		"/>
		<polygon id="XMLID_239_" class="st10" points="6.14,53.26 6.86,53.7 6.86,28.05 6.14,27.67 		"/>
		<polygon id="XMLID_238_" class="st13" points="20.32,45.81 20.99,45.42 20.99,19.77 20.32,20.16 		"/>
		<polygon id="XMLID_237_" class="st10" points="19.59,45.37 20.32,45.81 20.32,20.16 19.59,19.77 		"/>
		<g id="XMLID_202_">
			<g id="XMLID_215_">
				<polygon id="XMLID_224_" class="st10" points="29.91,68.32 30.7,68.79 30.7,68.08 29.91,67.61 				"/>
			</g>
			<g id="XMLID_208_">
				<polygon id="XMLID_210_" class="st11" points="30.7,68.79 45.7,60.02 45.7,59.31 30.7,68.08 				"/>
			</g>
			<g id="XMLID_206_">
				<polygon id="XMLID_207_" class="st12" points="29.91,67.61 30.7,68.08 45.7,59.31 44.9,58.84 				"/>
			</g>
		</g>
		<polygon id="XMLID_191_" class="st11" points="31.22,67.76 31.89,67.38 31.89,41.73 31.22,42.11 		"/>
		<polygon id="XMLID_190_" class="st10" points="30.49,67.32 31.22,67.76 31.22,42.11 30.49,41.73 		"/>
		<polygon id="XMLID_189_" class="st11" points="44.68,59.87 45.35,59.49 45.35,33.84 44.68,34.22 		"/>
		<polygon id="XMLID_132_" class="st10" points="43.95,59.43 44.68,59.87 44.68,34.22 43.95,33.84 		"/>
		<polygon id="XMLID_131_" class="st14" points="4.8,31.18 31.11,46.36 31.11,43.18 4.8,28 		"/>
		<polygon id="XMLID_130_" class="st15" points="4.8,28 31.11,43.18 47.45,33.63 21.15,18.45 		"/>
		<polygon id="XMLID_169_" class="st16" points="4.8,28 31.11,42.47 46.43,33.7 21.15,18.45 		"/>
		<polygon class="st17" points="45.35,33.43 30.16,42.31 5.72,28.21 20.91,19.33 29.03,24.01 31.24,25.29 37.62,28.98 40.09,30.4 		
			"/>
		<g>
			<g>
				<path class="st18" d="M31.69,39.84l-0.05-0.02L8.02,27.98l12.61-7.28l0.05,0.04l20.52,13.78l-4.19,2.42l-16.61-9.47l-0.38,0.22
					l16.56,9.34L31.69,39.84z M8.45,27.97l23.23,11.64l4.49-2.59l-16.55-9.34l0.79-0.46l16.61,9.47l3.8-2.19l-20.2-13.56L8.45,27.97
					z"/>
			</g>
			<g>
				<path class="st18" d="M14.64,30.29l-2.93-1.69l3.59-2.08l2.87,1.66l-0.69,1.73L14.64,30.29z M12.12,28.6l2.56,1.48l2.66-0.35
					l0.58-1.45l-2.62-1.51L12.12,28.6z"/>
			</g>
			<g>
				<path class="st18" d="M21.11,26.56l-2.93-1.69l3.59-2.08l2.87,1.66l-0.69,1.73L21.11,26.56z M18.59,24.87l2.56,1.48l2.66-0.35
					l0.58-1.45l-2.62-1.51L18.59,24.87z"/>
			</g>
		</g>
		<polygon id="XMLID_126_" class="st19" points="31.11,46.36 47.45,36.81 47.45,33.63 31.11,43.18 		"/>
	</g>
	<polygon class="st20" points="33.02,38.03 31.89,38.03 11.92,27.2 12.97,26.45 14.7,26.34 	"/>
	<path class="st14" d="M41.2,30.03c0,0-0.46,0.15-1.11,0.37l-2.47-1.42l0.94-0.47L41.2,30.03z"/>
	<path class="st20" d="M40.09,30.4c-1.09,0.36-2.69,0.92-3.37,1.22c-1.07,0.49-2.17,1.69-3.3,2.42c-1.13,0.74-2.54,0.46-2.54,0.46
		l-1.23-0.67l4-2.88l3.98-1.97L40.09,30.4z"/>
	<path class="st14" d="M32.24,24.85c0,0-0.43,0.19-1,0.44l-2.21-1.28c0.59-0.25,1.04-0.41,1.04-0.41L32.24,24.85z"/>
	<path class="st20" d="M31.24,25.29c-0.83,0.36-1.96,0.84-2.55,1.04c-1,0.35-2.23,3.56-2.23,3.56l-1.94,1.15c0,0-1.04-0.5-1.15-0.87
		c-0.12-0.36,2.51-4.06,3.25-4.82c0.44-0.46,1.56-0.98,2.4-1.34L31.24,25.29z"/>
	<polygon class="st21" points="34.55,36.51 33.02,37.38 12.97,26.45 14.43,25.53 	"/>
	<polygon class="st22" points="33.02,37.38 33.02,38.03 12.97,27.09 12.97,26.45 	"/>
	<polygon class="st23" points="34.55,36.51 34.55,37.16 33.02,38.03 33.02,37.38 	"/>
	<g>
		<path class="st8" d="M29.16,19.57c0,0-1.14-1.15-1.91-0.96c-0.92,1.38-1.57,3.66-1.95,5.09c-0.38,1.43-0.75,2.69-0.9,2.82
			c-0.15,0.13-0.43,0.29-0.58,0.32c-0.15,0.03-0.48,0.12-0.59,0.15c-0.12,0.03-0.3,0.29-0.36,0.44c-0.06,0.15-0.39,1.33-0.42,1.47
			c-0.02,0.14,0.17,0.57,0.17,0.57l0.46,0.29c0,0,0.1,0.29,0.15,0.36c0.05,0.07,0.13,0.07,0.13,0.07s0.12,0.46,0.37,0.51
			c0.26,0.05,0.42-0.24,0.42-0.24l0.2-0.34c0,0,0.6-0.52,0.97-0.96c0.37-0.44,0.53-0.49,0.58-0.72c0.05-0.23,0.2-0.9,0.38-1.4
			c0.19-0.5,0.74-1.8,0.95-2.23c0.21-0.43,2.6-3.74,2.57-4.17C29.78,20.19,29.16,19.57,29.16,19.57z"/>
		<path class="st24" d="M25.23,26.96c0,0-0.85,0.1-0.94,0.27s-0.72,1.17-0.75,1.4c-0.03,0.23-0.17,1.56-0.17,1.56
			s0.12,0.65,0.44,0.61c0.32-0.03,0.46-0.54,0.46-0.54l-0.03-1.16c0,0,0.5-1.02,0.63-1.1C24.99,27.91,25.75,27.16,25.23,26.96z"/>
		<path class="st25" d="M24.9,28.01l0.19,0.51c0,0,0.86,3.1-0.38,2.55c-0.27-0.12-1.06-2.61-1.06-3
			C23.66,27.43,24.5,26.52,24.9,28.01z"/>
		<path class="st24" d="M37.32,24.54c-0.09,0.14-2.71,3.25-4.29,4.57c-1.58,1.32-2.08,1.79-2.34,1.87
			c-0.27,0.08-1.23,0.22-1.73,0.34c-0.5,0.12-1.72,0.89-1.89,0.99c-0.17,0.09-1.04,0.65-1.16,0.78c-0.12,0.13-0.36,0.49-0.37,0.52
			c-0.01,0.03-0.01,0.22,0,0.32c0.01,0.1,0.08,0.36,0.24,0.43c0.16,0.07,0.41,0,0.41,0s-0.07,0.23,0.22,0.32
			c0.29,0.09,0.54-0.03,0.54-0.03l0.28-0.1c0,0-0.07,0.41,0.19,0.45c0.26,0.05,0.79-0.07,0.79-0.07l1.53-0.64
			c0,0,0.74-0.02,1.29-0.32c0.55-0.3,1.08-0.96,1.08-0.96s0.95-1.06,2.61-1.97c1.66-0.92,4.39-3.98,4.66-4.15
			c0.27-0.17,0.5-1.59,0.22-2.01C39.32,24.46,37.42,24.41,37.32,24.54z"/>
	</g>
	<path class="st24" d="M25.13,28.02c0,0-0.01,0.02-0.04,0.06c-0.13,0.2-0.51,0.82-0.61,0.98c-0.12,0.19-0.41,0.54-0.41,0.67
		c0,0.13-0.06,0.55,0.28,0.37c0.34-0.17,1.42-1.46,1.52-1.58c0.1-0.12,0.17-0.37,0.15-0.6c-0.02-0.23,0-0.66,0-0.66
		S25.58,26.54,25.13,28.02z"/>
</g>
</svg>
